<svg width="20" height="20" viewBox="0 0 20 20" fill="none" xmlns="http://www.w3.org/2000/svg">
<path fill-rule="evenodd" clip-rule="evenodd" d="M10.0001 0.400097C7.45402 0.400097 5.01222 1.41152 3.21187 3.21187C1.41152 5.01222 0.400097 7.45402 0.400097 10.0001C0.400097 12.5462 1.41152 14.988 3.21187 16.7883C5.01222 18.5887 7.45402 19.6001 10.0001 19.6001C12.5462 19.6001 14.988 18.5887 16.7883 16.7883C18.5887 14.988 19.6001 12.5462 19.6001 10.0001C19.6001 7.45402 18.5887 5.01222 16.7883 3.21187C14.988 1.41152 12.5462 0.400097 10.0001 0.400097ZM5.5517 10.8485L9.1517 14.4485C9.37802 14.6671 9.68114 14.788 9.99578 14.7853C10.3104 14.7826 10.6114 14.6564 10.8339 14.4339C11.0564 14.2114 11.1826 13.9104 11.1853 13.5958C11.188 13.2811 11.0671 12.978 10.8485 12.7517L9.2969 11.2001L13.6001 11.2001C13.9184 11.2001 14.2236 11.0737 14.4486 10.8486C14.6737 10.6236 14.8001 10.3184 14.8001 10.0001C14.8001 9.68184 14.6737 9.37661 14.4486 9.15157C14.2236 8.92653 13.9184 8.8001 13.6001 8.8001L9.2969 8.8001L10.8485 7.2485C10.9631 7.1378 11.0545 7.00539 11.1174 6.85898C11.1803 6.71258 11.2134 6.55511 11.2148 6.39578C11.2162 6.23644 11.1858 6.07843 11.1255 5.93095C11.0651 5.78348 10.976 5.6495 10.8634 5.53682C10.7507 5.42415 10.6167 5.33505 10.4692 5.27471C10.3218 5.21437 10.1638 5.18401 10.0044 5.1854C9.84508 5.18678 9.68762 5.21988 9.54121 5.28277C9.39481 5.34567 9.26239 5.43709 9.1517 5.5517L5.5517 9.1517C5.32673 9.37673 5.20035 9.6819 5.20035 10.0001C5.20035 10.3183 5.32673 10.6235 5.5517 10.8485Z" fill="white"/>
</svg>
